<?xml version="1.0" encoding="UTF-8" standalone="no"?>
<!-- Created with Inkscape (http://www.inkscape.org/) -->

<svg
   xmlns:dc="http://purl.org/dc/elements/1.1/"
   xmlns:cc="http://creativecommons.org/ns#"
   xmlns:rdf="http://www.w3.org/1999/02/22-rdf-syntax-ns#"
   xmlns:svg="http://www.w3.org/2000/svg"
   xmlns="http://www.w3.org/2000/svg"
   xmlns:sodipodi="http://sodipodi.sourceforge.net/DTD/sodipodi-0.dtd"
   xmlns:inkscape="http://www.inkscape.org/namespaces/inkscape"
   id="svg2"
   version="1.1"
   inkscape:version="0.91 r13725"
   width="115.2"
   height="115.2"
   viewBox="0 0 115.2 115.2"
   sodipodi:docname="logo.inkscape.svg">
  <metadata
     id="metadata8">
    <rdf:RDF>
      <cc:Work
         rdf:about="">
        <dc:format>image/svg+xml</dc:format>
        <dc:type
           rdf:resource="http://purl.org/dc/dcmitype/StillImage" />
        <dc:title></dc:title>
      </cc:Work>
    </rdf:RDF>
  </metadata>
  <defs
     id="defs6" />
  <sodipodi:namedview
     pagecolor="#ffffff"
     bordercolor="#666666"
     borderopacity="1"
     objecttolerance="10"
     gridtolerance="10"
     guidetolerance="10"
     inkscape:pageopacity="0"
     inkscape:pageshadow="2"
     inkscape:window-width="1411"
     inkscape:window-height="803"
     id="namedview4"
     showgrid="false"
     inkscape:zoom="2.0486112"
     inkscape:cx="13.723526"
     inkscape:cy="40.582566"
     inkscape:window-x="0"
     inkscape:window-y="24"
     inkscape:window-maximized="0"
     inkscape:current-layer="svg2" />
  <path
     inkscape:connector-curvature="0"
     id="path4142"
     d="m 5.39492,80.275424 0,-5.85 34.65,0 34.65,0 0,5.85 0,5.85 -34.65,0 -34.65,0 0,-5.85 z m 0,-14.4 0,-5.85 34.65,0 34.65,0 0,5.85 0,5.85 -34.65,0 -34.65,0 0,-5.85 z m 0,-14.85 0,-5.4 34.65,0 34.65,0 0,5.4 0,5.4 -34.65,0 -34.65,0 0,-5.4 z m 0,-14.85 0,-5.85 34.65,0 34.65,0 0,5.85 0,5.85 -34.65,0 -34.65,0 0,-5.85 z m 0,-14.4 0,-5.85 34.65,0 34.65,0 0,5.85 0,5.85 -34.65,0 -34.65,0 0,-5.85 z"
     style="fill:#b61918" />
  <path
     inkscape:connector-curvature="0"
     id="path4140"
     d="m 78.29492,72.625424 0,-12.6 12.81294,0 12.81295,0 -12.57589,12.6 c -6.91674,6.93 -12.68256,12.6 -12.81295,12.6 -0.13038,0 -0.23705,-5.67 -0.23705,-12.6 z"
     style="fill:#000000" />
  <rect
     style="opacity:1;fill:#9e9e9d;fill-opacity:1;stroke:none;stroke-width:4;stroke-linecap:round;stroke-linejoin:round;stroke-miterlimit:4;stroke-dasharray:none;stroke-opacity:1"
     id="rect4149"
     width="35.389828"
     height="10.922033"
     x="78.02034"
     y="45.680759" />
  <rect
     y="30.513073"
     x="78.02034"
     height="10.922033"
     width="35.389828"
     id="rect4151"
     style="opacity:1;fill:#9e9e9d;fill-opacity:1;stroke:none;stroke-width:4;stroke-linecap:round;stroke-linejoin:round;stroke-miterlimit:4;stroke-dasharray:none;stroke-opacity:1" />
</svg>
